<mxfile host="app.diagrams.net" agent="Mozilla/5.0 (Windows NT 10.0; Win64; x64) AppleWebKit/537.36 (KHTML, like Gecko) Chrome/131.0.0.0 Safari/537.36" version="26.0.6">
  <diagram name="PÃ¡gina-1" id="FLmXC6TdksUCZURyUKDu">
    <mxGraphModel dx="1147" dy="618" grid="1" gridSize="10" guides="1" tooltips="1" connect="1" arrows="1" fold="1" page="1" pageScale="1" pageWidth="827" pageHeight="1169" math="0" shadow="0">
      <root>
        <mxCell id="0" />
        <mxCell id="1" parent="0" />
        <mxCell id="VWTHG2VRgQwTWRx44wIi-3" value="&lt;font style=&quot;font-size: 30px;&quot;&gt;P3&lt;/font&gt;" style="ellipse;whiteSpace=wrap;html=1;aspect=fixed;" vertex="1" parent="1">
          <mxGeometry x="90" y="160" width="80" height="80" as="geometry" />
        </mxCell>
        <mxCell id="VWTHG2VRgQwTWRx44wIi-4" value="&lt;font style=&quot;font-size: 30px;&quot;&gt;P2&lt;/font&gt;" style="ellipse;whiteSpace=wrap;html=1;aspect=fixed;" vertex="1" parent="1">
          <mxGeometry x="250" y="160" width="80" height="80" as="geometry" />
        </mxCell>
        <mxCell id="VWTHG2VRgQwTWRx44wIi-5" value="&lt;span style=&quot;font-size: 30px;&quot;&gt;P1&lt;/span&gt;" style="ellipse;whiteSpace=wrap;html=1;aspect=fixed;" vertex="1" parent="1">
          <mxGeometry x="410" y="160" width="80" height="80" as="geometry" />
        </mxCell>
        <mxCell id="VWTHG2VRgQwTWRx44wIi-6" value="&lt;font style=&quot;font-size: 30px;&quot;&gt;P0&lt;/font&gt;" style="ellipse;whiteSpace=wrap;html=1;aspect=fixed;" vertex="1" parent="1">
          <mxGeometry x="570" y="160" width="80" height="80" as="geometry" />
        </mxCell>
        <mxCell id="VWTHG2VRgQwTWRx44wIi-7" value="" style="endArrow=classic;html=1;rounded=0;" edge="1" parent="1">
          <mxGeometry width="50" height="50" relative="1" as="geometry">
            <mxPoint x="180" y="180" as="sourcePoint" />
            <mxPoint x="240" y="180" as="targetPoint" />
          </mxGeometry>
        </mxCell>
        <mxCell id="VWTHG2VRgQwTWRx44wIi-8" value="" style="endArrow=classic;html=1;rounded=0;" edge="1" parent="1">
          <mxGeometry width="50" height="50" relative="1" as="geometry">
            <mxPoint x="340" y="180" as="sourcePoint" />
            <mxPoint x="400" y="180" as="targetPoint" />
          </mxGeometry>
        </mxCell>
        <mxCell id="VWTHG2VRgQwTWRx44wIi-9" value="" style="endArrow=classic;html=1;rounded=0;" edge="1" parent="1">
          <mxGeometry width="50" height="50" relative="1" as="geometry">
            <mxPoint x="500" y="180" as="sourcePoint" />
            <mxPoint x="560" y="180" as="targetPoint" />
          </mxGeometry>
        </mxCell>
        <mxCell id="VWTHG2VRgQwTWRx44wIi-13" value="" style="endArrow=classic;html=1;rounded=0;" edge="1" parent="1">
          <mxGeometry width="50" height="50" relative="1" as="geometry">
            <mxPoint x="240" y="220" as="sourcePoint" />
            <mxPoint x="180" y="220" as="targetPoint" />
          </mxGeometry>
        </mxCell>
        <mxCell id="VWTHG2VRgQwTWRx44wIi-14" value="" style="endArrow=classic;html=1;rounded=0;" edge="1" parent="1">
          <mxGeometry width="50" height="50" relative="1" as="geometry">
            <mxPoint x="400" y="220" as="sourcePoint" />
            <mxPoint x="340" y="220" as="targetPoint" />
          </mxGeometry>
        </mxCell>
        <mxCell id="VWTHG2VRgQwTWRx44wIi-15" value="" style="endArrow=classic;html=1;rounded=0;" edge="1" parent="1">
          <mxGeometry width="50" height="50" relative="1" as="geometry">
            <mxPoint x="560" y="220" as="sourcePoint" />
            <mxPoint x="500" y="220" as="targetPoint" />
          </mxGeometry>
        </mxCell>
        <mxCell id="VWTHG2VRgQwTWRx44wIi-16" value="Entrada =&amp;gt; movimiento&lt;div&gt;&quot;10&quot; =&amp;gt; arriba&lt;/div&gt;&lt;div&gt;&quot;01&quot; =&amp;gt; abajo&lt;/div&gt;&lt;div&gt;&quot;00&quot; =&amp;gt; parado&lt;/div&gt;" style="text;html=1;align=center;verticalAlign=top;whiteSpace=wrap;rounded=0;" vertex="1" parent="1">
          <mxGeometry x="80" y="40" width="160" height="80" as="geometry" />
        </mxCell>
        <mxCell id="VWTHG2VRgQwTWRx44wIi-17" value="01" style="text;html=1;align=center;verticalAlign=middle;whiteSpace=wrap;rounded=0;" vertex="1" parent="1">
          <mxGeometry x="180" y="160" width="60" height="20" as="geometry" />
        </mxCell>
        <mxCell id="VWTHG2VRgQwTWRx44wIi-18" value="01" style="text;html=1;align=center;verticalAlign=middle;whiteSpace=wrap;rounded=0;" vertex="1" parent="1">
          <mxGeometry x="340" y="160" width="60" height="20" as="geometry" />
        </mxCell>
        <mxCell id="VWTHG2VRgQwTWRx44wIi-19" value="01" style="text;html=1;align=center;verticalAlign=middle;whiteSpace=wrap;rounded=0;" vertex="1" parent="1">
          <mxGeometry x="500" y="160" width="60" height="20" as="geometry" />
        </mxCell>
        <mxCell id="VWTHG2VRgQwTWRx44wIi-20" value="10" style="text;html=1;align=center;verticalAlign=middle;whiteSpace=wrap;rounded=0;" vertex="1" parent="1">
          <mxGeometry x="180" y="220" width="60" height="20" as="geometry" />
        </mxCell>
        <mxCell id="VWTHG2VRgQwTWRx44wIi-21" value="10" style="text;html=1;align=center;verticalAlign=middle;whiteSpace=wrap;rounded=0;" vertex="1" parent="1">
          <mxGeometry x="340" y="220" width="60" height="20" as="geometry" />
        </mxCell>
        <mxCell id="VWTHG2VRgQwTWRx44wIi-22" value="10" style="text;html=1;align=center;verticalAlign=middle;whiteSpace=wrap;rounded=0;" vertex="1" parent="1">
          <mxGeometry x="500" y="220" width="60" height="20" as="geometry" />
        </mxCell>
        <mxCell id="VWTHG2VRgQwTWRx44wIi-26" value="" style="curved=1;endArrow=classic;html=1;rounded=0;exitX=0.5;exitY=1;exitDx=0;exitDy=0;entryX=0.232;entryY=0.915;entryDx=0;entryDy=0;entryPerimeter=0;" edge="1" parent="1" source="VWTHG2VRgQwTWRx44wIi-4" target="VWTHG2VRgQwTWRx44wIi-4">
          <mxGeometry width="50" height="50" relative="1" as="geometry">
            <mxPoint x="250" y="280" as="sourcePoint" />
            <mxPoint x="250" y="260" as="targetPoint" />
            <Array as="points">
              <mxPoint x="290" y="260" />
              <mxPoint x="260" y="250" />
            </Array>
          </mxGeometry>
        </mxCell>
        <mxCell id="VWTHG2VRgQwTWRx44wIi-27" value="" style="curved=1;endArrow=classic;html=1;rounded=0;exitX=0.5;exitY=1;exitDx=0;exitDy=0;entryX=0.232;entryY=0.915;entryDx=0;entryDy=0;entryPerimeter=0;" edge="1" parent="1">
          <mxGeometry width="50" height="50" relative="1" as="geometry">
            <mxPoint x="130" y="240" as="sourcePoint" />
            <mxPoint x="109" y="233" as="targetPoint" />
            <Array as="points">
              <mxPoint x="130" y="260" />
              <mxPoint x="100" y="250" />
            </Array>
          </mxGeometry>
        </mxCell>
        <mxCell id="VWTHG2VRgQwTWRx44wIi-28" value="" style="curved=1;endArrow=classic;html=1;rounded=0;exitX=0.5;exitY=1;exitDx=0;exitDy=0;entryX=0.232;entryY=0.915;entryDx=0;entryDy=0;entryPerimeter=0;" edge="1" parent="1">
          <mxGeometry width="50" height="50" relative="1" as="geometry">
            <mxPoint x="450" y="240" as="sourcePoint" />
            <mxPoint x="429" y="233" as="targetPoint" />
            <Array as="points">
              <mxPoint x="450" y="260" />
              <mxPoint x="420" y="250" />
            </Array>
          </mxGeometry>
        </mxCell>
        <mxCell id="VWTHG2VRgQwTWRx44wIi-29" value="" style="curved=1;endArrow=classic;html=1;rounded=0;exitX=0.5;exitY=1;exitDx=0;exitDy=0;entryX=0.232;entryY=0.915;entryDx=0;entryDy=0;entryPerimeter=0;" edge="1" parent="1">
          <mxGeometry width="50" height="50" relative="1" as="geometry">
            <mxPoint x="610" y="240" as="sourcePoint" />
            <mxPoint x="589" y="233" as="targetPoint" />
            <Array as="points">
              <mxPoint x="610" y="260" />
              <mxPoint x="580" y="250" />
            </Array>
          </mxGeometry>
        </mxCell>
        <mxCell id="VWTHG2VRgQwTWRx44wIi-30" value="00" style="text;html=1;align=center;verticalAlign=middle;whiteSpace=wrap;rounded=0;" vertex="1" parent="1">
          <mxGeometry x="80" y="250" width="60" height="30" as="geometry" />
        </mxCell>
        <mxCell id="VWTHG2VRgQwTWRx44wIi-32" value="00" style="text;html=1;align=center;verticalAlign=middle;whiteSpace=wrap;rounded=0;" vertex="1" parent="1">
          <mxGeometry x="240" y="250" width="60" height="30" as="geometry" />
        </mxCell>
        <mxCell id="VWTHG2VRgQwTWRx44wIi-33" value="00" style="text;html=1;align=center;verticalAlign=middle;whiteSpace=wrap;rounded=0;" vertex="1" parent="1">
          <mxGeometry x="400" y="250" width="60" height="30" as="geometry" />
        </mxCell>
        <mxCell id="VWTHG2VRgQwTWRx44wIi-34" value="00" style="text;html=1;align=center;verticalAlign=middle;whiteSpace=wrap;rounded=0;" vertex="1" parent="1">
          <mxGeometry x="560" y="250" width="60" height="30" as="geometry" />
        </mxCell>
        <mxCell id="VWTHG2VRgQwTWRx44wIi-35" value="Estado =&amp;gt; Salida&lt;div&gt;P0 =&amp;gt; &quot;00&quot;&lt;/div&gt;&lt;div&gt;P1 =&amp;gt; &quot;01&quot;&lt;/div&gt;&lt;div&gt;P2 =&amp;gt; &quot;10&quot;&lt;/div&gt;&lt;div&gt;P3 =&amp;gt; &quot;11&quot;&lt;/div&gt;" style="text;html=1;align=center;verticalAlign=top;whiteSpace=wrap;rounded=0;" vertex="1" parent="1">
          <mxGeometry x="510" y="40" width="160" height="80" as="geometry" />
        </mxCell>
      </root>
    </mxGraphModel>
  </diagram>
</mxfile>
